<svg viewBox="0 0 180 180" xmlns="http://www.w3.org/2000/svg">
  <path fill="var(--iui-color-background-backdrop-hover)"
    d="m134.55392 5h31.47589a1.9765 1.9765 0 0 1 1.97019 1.98276v166.03448a1.9765 1.9765 0 0 1 -1.97019 1.98276h-31.47589z" />
  <path fill="var(--iui-color-border-subtle)"
    d="m158.588 60h-14.09749v-56.23a3.75811 3.75811 0 0 0 -3.7461-3.77h-118.85029a3.7581 3.7581 0 0 0 -3.74612 3.77v29.79591a2.86792 2.86792 0 0 0 2.85875 2.877h2.52325a4.78131 4.78131 0 0 1 4.766 4.79645v.00006a4.78131 4.78131 0 0 1 -4.766 4.79645h-2.52328a2.86792 2.86792 0 0 0 -2.85875 2.877v33.653a2.86792 2.86792 0 0 0 2.85875 2.877h2.52328a4.78131 4.78131 0 0 1 4.766 4.79645v.00006a4.78131 4.78131 0 0 1 -4.766 4.79645h-2.52328a2.86791 2.86791 0 0 0 -2.85875 2.877v33.65317a2.86792 2.86792 0 0 0 2.85875 2.877h2.52328a4.78131 4.78131 0 0 1 4.766 4.79645v.00006a4.7813 4.7813 0 0 1 -4.766 4.79644h-2.52328a2.86792 2.86792 0 0 0 -2.85875 2.877v29.31705a3.75811 3.75811 0 0 0 3.74608 3.77h136.69395a3.7581 3.7581 0 0 0 3.74609-3.77v-112.46a3.7581 3.7581 0 0 0 -3.74609-3.77z" />
  <path fill="var(--iui-color-background-backdrop-hover)" d="m52 72h76v36h-76z" />
  <path fill="var(--iui-color-border-subtle)"
    d="m63.606 80h52.788a2.65727 2.65727 0 0 1 2.606 2.70569v14.58862a2.65727 2.65727 0 0 1 -2.606 2.70569h-52.788a2.65727 2.65727 0 0 1 -2.606-2.70569v-14.58862a2.65727 2.65727 0 0 1 2.606-2.70569z" />
  <path fill="var(--iui-color-background-backdrop-hover)"
    d="m12.76606 85.44287h10.76394a4.78136 4.78136 0 0 1 4.766 4.79649 4.78136 4.78136 0 0 1 -4.766 4.7965h-10.76394a4.78136 4.78136 0 0 1 -4.76606-4.7965 4.78136 4.78136 0 0 1 4.76606-4.79649zm0 49h10.76394a4.78135 4.78135 0 0 1 4.76607 4.79649 4.78135 4.78135 0 0 1 -4.76607 4.7965h-10.76394a4.78135 4.78135 0 0 1 -4.76606-4.7965 4.78135 4.78135 0 0 1 4.76606-4.79649zm0-98h10.76394a4.78135 4.78135 0 0 1 4.766 4.79649 4.78135 4.78135 0 0 1 -4.766 4.7965h-10.76394a4.78135 4.78135 0 0 1 -4.76606-4.79649 4.78135 4.78135 0 0 1 4.76606-4.7965z" />
</svg>